<svg width="378.9500366210937px" height="122px" xmlns="http://www.w3.org/2000/svg" viewBox="60.52498168945314 14 378.9500366210937 122" style="background: rgba(0, 0, 0, 0);" preserveAspectRatio="xMidYMid"><defs><linearGradient id="editing-outline-gradient" x1="-0.41354545764260087" x2="1.4135454576426008" y1="0.09326335692419985" y2="0.9067366430758002"><stop offset="0" stop-color="#ee4208"></stop><stop offset="1" stop-color="#4139ff"></stop></linearGradient><filter id="editing-outline" x="-100%" y="-100%" width="300%" height="300%"><feMorphology in="SourceGraphic" operator="dilate" radius="1" result="outline"></feMorphology><feComposite operator="out" in="outline" in2="SourceAlpha"></feComposite></filter></defs><g filter="url(#editing-outline)"><g transform="translate(119.18499478697777, 98.68000030517578)"><path d="M14.62 0.16L14.62 0.16L14.62 0.16Q11.20-0.45 9.41-0.70L9.41-0.70L9.41-0.70Q7.62-0.96 5.73-0.96L5.73-0.96L5.73-0.96Q3.84-0.96 2.88 0L2.88 0L2.88 0Q1.41-1.09 0.64-4.54L0.64-4.54L0.64-4.54Q0.38-5.50 0.38-7.10L0.38-7.10L0.38-7.10Q0.38-10.56 4.35-13.95L4.35-13.95L24.32-30.34L24.32-30.34Q16.06-31.68 12.74-31.68L12.74-31.68L12.74-31.68Q9.41-31.68 6.34-30.21L6.34-30.21L6.34-30.21Q4.61-33.02 4.61-36.29L4.61-36.29L4.61-36.29Q4.61-39.55 7.01-41.22L7.01-41.22L7.01-41.22Q9.41-42.88 13.44-42.88L13.44-42.88L13.44-42.88Q15.23-42.88 17.15-42.62L17.15-42.62L17.15-42.62Q19.07-42.37 20.99-42.11L20.99-42.11L24.77-41.54L24.77-41.54Q26.62-41.28 29.02-41.28L29.02-41.28L29.02-41.28Q31.42-41.28 34.11-41.92L34.11-41.92L34.11-41.92Q36.67-39.68 36.67-35.97L36.67-35.97L36.67-35.97Q36.67-31.49 33.60-29.06L33.60-29.06L11.84-11.65L11.84-11.65Q16.51-10.37 24.26-10.37L24.26-10.37L24.26-10.37Q28.10-10.37 30.53-12.29L30.53-12.29L30.53-12.29Q31.62-10.88 31.90-9.70L31.90-9.70L31.90-9.70Q32.19-8.51 32.19-6.82L32.19-6.82L32.19-6.82Q32.19-5.12 31.62-3.74L31.62-3.74L31.62-3.74Q31.04-2.37 29.82-1.34L29.82-1.34L29.82-1.34Q27.39 0.77 22.02 0.77L22.02 0.77L22.02 0.77Q18.05 0.77 14.62 0.16ZM67.14-33.92L67.14-33.92L67.14-33.92Q61.95-33.92 58.18-35.65L58.18-35.65L56.13-25.28L68.48-25.28L68.48-25.28Q68.48-21.89 66.78-19.74L66.78-19.74L66.78-19.74Q65.09-17.60 62.02-17.60L62.02-17.60L62.02-17.60Q58.69-17.60 55.62-18.82L55.62-18.82L55.62-18.82Q54.98-19.07 54.91-19.14L54.91-19.14L51.26 0L37.31 0L45.44-42.24L73.98-42.24L73.98-42.24Q73.98-38.34 72.16-36.13L72.16-36.13L72.16-36.13Q70.34-33.92 67.14-33.92ZM90.69-31.17L90.69-31.17L90.69-31.17Q88.51-32.83 88.51-36.38L88.51-36.38L88.51-36.38Q88.51-39.94 90.85-41.79L90.85-41.79L90.85-41.79Q93.18-43.65 97.22-43.65L97.22-43.65L97.22-43.65Q99.78-43.65 105.86-42.75L105.86-42.75L110.21-42.11L110.21-42.11Q112.38-41.86 114.66-41.86L114.66-41.86L114.66-41.86Q116.93-41.86 118.46-42.82L118.46-42.82L118.46-42.82Q120.77-40.77 120.77-37.82L120.77-37.82L120.77-37.82Q120.77-34.88 118.14-32.77L118.14-32.77L118.14-32.77Q115.46-30.53 112.00-30.53L112.00-30.53L112.00-30.53Q110.34-30.53 107.65-30.98L107.65-30.98L107.65-30.98Q104.51-21.12 104.51-14.27L104.51-14.27L104.51-14.27Q104.51-7.42 107.97-3.84L107.97-3.84L107.97-3.84Q106.37-0.96 104.00 0.16L104.00 0.16L104.00 0.16Q101.63 1.28 98.08 1.28L98.08 1.28L98.08 1.28Q94.53 1.28 92.32-0.67L92.32-0.67L92.32-0.67Q90.11-2.62 90.11-6.66L90.11-6.66L90.11-6.66Q90.11-11.33 92.67-19.01L92.67-19.01L92.67-19.01Q95.23-26.62 99.07-32.45L99.07-32.45L99.07-32.45Q97.22-32.64 95.30-32.64L95.30-32.64L95.30-32.64Q91.33-32.64 90.69-31.17ZM138.37-17.98L138.37-17.98L138.37-17.98Q140.67-22.08 140.67-26.24L140.67-26.24L140.67-26.24Q140.67-28.99 138.69-28.99L138.69-28.99L138.69-28.99Q137.15-28.99 135.55-26.37L135.55-26.37L135.55-26.37Q133.89-23.74 133.38-20.35L133.38-20.35L130.05 0L116.80 1.28L123.33-32.64L133.89-33.92L132.74-27.46L132.74-27.46Q135.87-33.92 142.91-33.92L142.91-33.92L142.91-33.92Q146.62-33.92 148.64-32L148.64-32L148.64-32Q150.66-30.08 150.66-26.14L150.66-26.14L150.66-26.14Q150.66-22.21 148.06-19.71L148.06-19.71L148.06-19.71Q145.47-17.22 141.06-17.22L141.06-17.22L141.06-17.22Q139.14-17.22 138.37-17.98ZM177.60-10.82L177.60-10.82L177.60-10.82Q179.20-9.73 179.20-7.33L179.20-7.33L179.20-7.33Q179.20-4.93 177.98-3.39L177.98-3.39L177.98-3.39Q176.77-1.86 174.78-0.83L174.78-0.83L174.78-0.83Q170.69 1.28 166.27 1.28L166.27 1.28L166.27 1.28Q161.86 1.28 159.26 0.32L159.26 0.32L159.26 0.32Q156.67-0.64 154.94-2.43L154.94-2.43L154.94-2.43Q151.55-5.82 151.55-12.03L151.55-12.03L151.55-12.03Q151.55-21.70 156.80-27.58L156.80-27.58L156.80-27.58Q162.43-33.92 172.22-33.92L172.22-33.92L172.22-33.92Q178.30-33.92 181.31-31.36L181.31-31.36L181.31-31.36Q183.55-29.44 183.55-26.30L183.55-26.30L183.55-26.30Q183.55-15.04 164.10-15.04L164.10-15.04L164.10-15.04Q163.84-13.38 163.84-11.97L163.84-11.97L163.84-11.97Q163.84-9.02 165.15-7.90L165.15-7.90L165.15-7.90Q166.46-6.78 168.90-6.78L168.90-6.78L168.90-6.78Q171.33-6.78 173.92-7.90L173.92-7.90L173.92-7.90Q176.51-9.02 177.60-10.82ZM164.54-17.79L164.54-17.79L164.54-17.79Q169.09-17.79 171.71-20.61L171.71-20.61L171.71-20.61Q174.34-23.30 174.34-27.58L174.34-27.58L174.34-27.58Q174.34-29.06 173.79-29.86L173.79-29.86L173.79-29.86Q173.25-30.66 172.16-30.66L172.16-30.66L172.16-30.66Q171.07-30.66 170.14-30.24L170.14-30.24L170.14-30.24Q169.22-29.82 168.26-28.42L168.26-28.42L168.26-28.42Q165.89-25.22 164.54-17.79ZM201.02-3.52L201.02-3.52L201.02-3.52Q199.04 1.28 192.70 1.28L192.70 1.28L192.70 1.28Q189.50 1.28 187.46-0.96L187.46-0.96L187.46-0.96Q185.79-2.82 185.79-4.93L185.79-4.93L185.79-4.93Q185.79-9.73 188.03-20.22L188.03-20.22L192.70-44.80L205.70-46.08L199.49-13.70L199.49-13.70Q198.40-8.96 198.40-7.30L198.40-7.30L198.40-7.30Q198.40-3.65 201.02-3.52ZM221.76-3.52L221.76-3.52L221.76-3.52Q219.78 1.28 213.44 1.28L213.44 1.28L213.44 1.28Q210.24 1.28 208.19-0.96L208.19-0.96L208.19-0.96Q206.53-2.82 206.53-4.93L206.53-4.93L206.53-4.93Q206.53-9.73 208.77-20.22L208.77-20.22L213.44-44.80L226.43-46.08L220.22-13.70L220.22-13.70Q219.14-8.96 219.14-7.30L219.14-7.30L219.14-7.30Q219.14-3.65 221.76-3.52ZM241.15 1.28L241.15 1.28L241.15 1.28Q227.07 1.28 227.07-11.97L227.07-11.97L227.07-11.97Q227.07-21.38 232.26-27.46L232.26-27.46L232.26-27.46Q237.76-33.92 247.30-33.92L247.30-33.92L247.30-33.92Q254.21-33.92 257.73-30.72L257.73-30.72L257.73-30.72Q261.25-27.52 261.25-20.80L261.25-20.80L261.25-20.80Q261.25-10.56 255.74-4.61L255.74-4.61L255.74-4.61Q250.37 1.28 241.15 1.28ZM242.82-26.56L242.82-26.56L242.82-26.56Q242.05-24.83 241.44-22.24L241.44-22.24L241.44-22.24Q240.83-19.65 240.06-15.55L240.06-15.55L240.06-15.55Q239.30-11.46 239.30-6.40L239.30-6.40L239.30-6.40Q239.30-4.74 239.84-3.65L239.84-3.65L239.84-3.65Q240.38-2.56 241.86-2.56L241.86-2.56L241.86-2.56Q243.33-2.56 244.26-3.26L244.26-3.26L244.26-3.26Q245.18-3.97 245.89-5.63L245.89-5.63L245.89-5.63Q247.17-8.58 248.19-14.05L248.19-14.05L248.19-14.05Q249.22-19.52 249.31-21.89L249.31-21.89L249.31-21.89Q249.41-24.26 249.41-26.02L249.41-26.02L249.41-26.02Q249.41-27.78 248.90-28.93L248.90-28.93L248.90-28.93Q248.38-30.08 246.94-30.08L246.94-30.08L246.94-30.08Q245.50-30.08 244.54-29.18L244.54-29.18L244.54-29.18Q243.58-28.29 242.82-26.56Z" fill="url(#editing-outline-gradient)"></path></g></g><style>text {
  font-size: 64px;
  font-family: Arial Black;
  dominant-baseline: central;
  text-anchor: middle;
}</style></svg>